<svg width="1146" height="284" viewBox="0 0 1146 284" fill="none" xmlns="http://www.w3.org/2000/svg">
<path d="M309.753 233H257L289.583 78.5984H331.733L336.388 95.123H337.939C344.146 88.582 351.041 83.9345 358.627 81.1804C366.385 78.2542 373.97 76.791 381.383 76.791C387.417 76.791 392.416 77.7378 396.381 79.6312C400.519 81.3525 403.794 83.7624 406.208 86.8607C408.621 89.9591 410.345 93.6599 411.38 97.9632C412.414 102.266 412.931 106.828 412.931 111.648C412.931 114.057 412.759 117.672 412.414 122.492C412.069 127.312 411.294 132.734 410.087 138.758C408.88 144.611 407.156 150.721 404.915 157.09C402.674 163.287 399.657 168.967 395.864 174.131C392.244 179.295 387.589 183.513 381.9 186.783C376.384 190.054 369.746 191.689 361.989 191.689C357.679 191.689 353.455 191.172 349.318 190.14C345.352 189.107 341.732 187.73 338.457 186.008C335.181 184.287 332.25 182.308 329.664 180.07C327.251 177.66 325.441 175.25 324.234 172.84H322.682L309.753 233ZM337.164 166.644C341.301 166.644 344.749 164.492 347.507 160.189C350.266 155.713 352.507 150.549 354.231 144.697C355.955 138.672 357.161 132.734 357.851 126.881C358.713 120.857 359.144 116.381 359.144 113.455C359.144 110.012 358.541 107.172 357.334 104.935C356.3 102.697 354.317 101.578 351.386 101.578C348.111 101.578 345.008 102.783 342.077 105.193C339.146 107.43 336.991 109.41 335.612 111.131L325.527 158.381C326.906 160.275 328.544 162.168 330.44 164.062C332.337 165.783 334.578 166.644 337.164 166.644Z" fill="#253269"/>
<path d="M456.629 88.1517C465.421 83.8484 474.386 80.7501 483.523 78.8566C492.832 76.791 503.176 75.7583 514.554 75.7583C525.587 75.7583 534.724 76.6189 541.965 78.3402C549.205 80.0615 554.981 82.5574 559.291 85.8279C563.6 89.0984 566.617 92.9714 568.341 97.4468C570.065 101.922 570.927 107 570.927 112.68C570.927 115.951 570.669 119.48 570.151 123.267C569.807 127.053 569.376 130.238 568.858 132.82L556.705 189.623H515.071L510.417 173.099H508.865C503.348 179.123 496.884 183.771 489.471 187.041C482.23 190.14 474.989 191.689 467.749 191.689C463.611 191.689 459.56 191.086 455.595 189.881C451.63 188.676 448.096 186.869 444.993 184.459C441.89 181.877 439.39 178.693 437.494 174.906C435.597 170.947 434.649 166.213 434.649 160.705C434.649 151.754 437.063 144.697 441.89 139.533C446.889 134.197 453.354 130.238 461.284 127.656C469.387 124.902 478.437 123.18 488.436 122.492C498.608 121.803 508.779 121.459 518.95 121.459C519.295 119.738 519.726 117.328 520.243 114.23C520.76 110.959 521.019 108.119 521.019 105.709C521.019 102.611 520.157 99.7706 518.433 97.1886C516.881 94.4345 513.52 93.0575 508.348 93.0575C502.314 93.0575 497.832 94.8648 494.901 98.4796C492.143 101.922 490.333 106.139 489.471 111.131H451.716L456.629 88.1517ZM516.106 133.594H511.451C506.452 133.594 502.142 134.283 498.521 135.66C495.073 136.865 492.229 138.5 489.988 140.566C487.919 142.631 486.367 144.955 485.333 147.537C484.299 150.119 483.782 152.701 483.782 155.283C483.782 159.414 484.816 162.512 486.885 164.578C489.126 166.644 491.712 167.676 494.642 167.676C498.263 167.676 501.797 166.385 505.245 163.803C508.865 161.222 511.106 157.779 511.968 153.476L516.106 133.594Z" fill="#253269"/>
<path d="M619.739 78.5984H661.889L665.768 97.9632H667.578C671.543 91.7665 676.629 86.5165 682.835 82.2132C689.041 77.9099 697.23 75.7583 707.401 75.7583C708.091 75.7583 709.125 75.8443 710.505 76.0164C712.056 76.0164 713.694 76.2746 715.418 76.791C717.314 77.1353 719.21 77.7378 721.107 78.5984C723.176 79.2869 725.158 80.3197 727.054 81.6968L715.676 134.885H687.49C687.145 124.213 686.197 116.812 684.645 112.68C683.094 108.377 680.594 106.226 677.146 106.226C675.422 106.226 673.526 106.656 671.457 107.517C669.561 108.205 667.578 109.84 665.509 112.422L648.96 189.623H596.207L619.739 78.5984Z" fill="#253269"/>
<path d="M753.793 78.5984C760.171 77.2214 765.774 75.6722 770.601 73.9509C775.428 72.2296 779.824 70.0779 783.789 67.4959C787.927 64.914 791.806 61.7295 795.426 57.9426C799.219 54.1558 803.27 49.5082 807.58 44H834.215L826.716 78.5984H846.886L843.524 95.8976H823.095L812.493 146.246C811.631 150.205 810.941 153.734 810.424 156.832C809.907 159.931 809.649 162.34 809.649 164.062C809.649 167.504 810.855 169.656 813.269 170.517C815.855 171.377 820.596 171.808 827.491 171.808L823.612 189.623C822.406 189.967 820.509 190.226 817.923 190.398C815.51 190.57 812.752 190.742 809.649 190.914C806.718 191.258 803.615 191.431 800.339 191.431C797.236 191.603 794.478 191.689 792.064 191.689C787.754 191.689 783.531 191.345 779.393 190.656C775.256 190.14 771.549 189.021 768.274 187.299C764.998 185.406 762.326 182.738 760.257 179.295C758.361 175.853 757.413 171.205 757.413 165.353C757.413 163.287 757.499 160.705 757.671 157.607C758.016 154.508 758.62 151.066 759.482 147.279L770.342 95.8976H750.172L753.793 78.5984Z" fill="#253269"/>
<path d="M882.21 78.5984H924.361L928.239 97.9632H930.05C934.015 91.7665 939.1 86.5165 945.307 82.2132C951.513 77.9099 959.702 75.7583 969.873 75.7583C970.562 75.7583 971.597 75.8443 972.976 76.0164C974.527 76.0164 976.165 76.2746 977.889 76.791C979.786 77.1353 981.682 77.7378 983.578 78.5984C985.647 79.2869 987.63 80.3197 989.526 81.6968L978.148 134.885H949.961C949.616 124.213 948.668 116.812 947.117 112.68C945.565 108.377 943.065 106.226 939.617 106.226C937.894 106.226 935.997 106.656 933.928 107.517C932.032 108.205 930.05 109.84 927.981 112.422L911.431 189.623H858.678L882.21 78.5984Z" fill="#253269"/>
<path d="M1085.83 75.7583C1106.34 75.7583 1121.25 79.373 1130.56 86.6025C1140.39 94.1763 1145.3 106.742 1145.3 124.299C1145.3 135.144 1143.49 144.955 1139.87 153.734C1136.25 162.34 1131.17 169.484 1124.61 175.164C1111.51 186.181 1092.55 191.689 1067.72 191.689C1046.52 191.689 1031.35 187.644 1022.21 179.554C1012.39 171.119 1007.47 158.467 1007.47 141.599C1007.47 130.41 1009.71 120.254 1014.2 111.131C1018.85 102.008 1025.49 94.4345 1034.11 88.4099C1046.69 79.9755 1063.93 75.7583 1085.83 75.7583ZM1068.24 174.131C1072.55 174.131 1076.26 171.722 1079.36 166.902C1082.64 162.082 1085.22 156.23 1087.12 149.344C1089.01 142.287 1090.39 135.058 1091.26 127.656C1092.29 120.082 1092.81 113.541 1092.81 108.033C1092.81 103.213 1092.29 99.5985 1091.26 97.1886C1090.39 94.6066 1088.41 93.3157 1085.31 93.3157C1080.65 93.3157 1076.6 95.8116 1073.15 100.803C1069.88 105.795 1067.21 111.734 1065.14 118.619C1063.07 125.504 1061.52 132.562 1060.48 139.791C1059.62 147.021 1059.19 152.873 1059.19 157.349C1059.19 168.537 1062.21 174.131 1068.24 174.131Z" fill="#253269"/>
<path d="M309.753 233H257L289.583 78.5984H331.733L336.388 95.123H337.939C344.146 88.582 351.041 83.9345 358.627 81.1804C366.385 78.2542 373.97 76.791 381.383 76.791C387.417 76.791 392.416 77.7378 396.381 79.6312C400.519 81.3525 403.794 83.7624 406.208 86.8607C408.621 89.9591 410.345 93.6599 411.38 97.9632C412.414 102.266 412.931 106.828 412.931 111.648C412.931 114.057 412.759 117.672 412.414 122.492C412.069 127.312 411.294 132.734 410.087 138.758C408.88 144.611 407.156 150.721 404.915 157.09C402.674 163.287 399.657 168.967 395.864 174.131C392.244 179.295 387.589 183.513 381.9 186.783C376.384 190.054 369.746 191.689 361.989 191.689C357.679 191.689 353.455 191.172 349.318 190.14C345.352 189.107 341.732 187.73 338.457 186.008C335.181 184.287 332.25 182.308 329.664 180.07C327.251 177.66 325.441 175.25 324.234 172.84H322.682L309.753 233ZM337.164 166.644C341.301 166.644 344.749 164.492 347.507 160.189C350.266 155.713 352.507 150.549 354.231 144.697C355.955 138.672 357.161 132.734 357.851 126.881C358.713 120.857 359.144 116.381 359.144 113.455C359.144 110.012 358.541 107.172 357.334 104.935C356.3 102.697 354.317 101.578 351.386 101.578C348.111 101.578 345.008 102.783 342.077 105.193C339.146 107.43 336.991 109.41 335.612 111.131L325.527 158.381C326.906 160.275 328.544 162.168 330.44 164.062C332.337 165.783 334.578 166.644 337.164 166.644Z" stroke="#EB5757"/>
<path d="M456.629 88.1517C465.421 83.8484 474.386 80.7501 483.523 78.8566C492.832 76.791 503.176 75.7583 514.554 75.7583C525.587 75.7583 534.724 76.6189 541.965 78.3402C549.205 80.0615 554.981 82.5574 559.291 85.8279C563.6 89.0984 566.617 92.9714 568.341 97.4468C570.065 101.922 570.927 107 570.927 112.68C570.927 115.951 570.669 119.48 570.151 123.267C569.807 127.053 569.376 130.238 568.858 132.82L556.705 189.623H515.071L510.417 173.099H508.865C503.348 179.123 496.884 183.771 489.471 187.041C482.23 190.14 474.989 191.689 467.749 191.689C463.611 191.689 459.56 191.086 455.595 189.881C451.63 188.676 448.096 186.869 444.993 184.459C441.89 181.877 439.39 178.693 437.494 174.906C435.597 170.947 434.649 166.213 434.649 160.705C434.649 151.754 437.063 144.697 441.89 139.533C446.889 134.197 453.354 130.238 461.284 127.656C469.387 124.902 478.437 123.18 488.436 122.492C498.608 121.803 508.779 121.459 518.95 121.459C519.295 119.738 519.726 117.328 520.243 114.23C520.76 110.959 521.019 108.119 521.019 105.709C521.019 102.611 520.157 99.7706 518.433 97.1886C516.881 94.4345 513.52 93.0575 508.348 93.0575C502.314 93.0575 497.832 94.8648 494.901 98.4796C492.143 101.922 490.333 106.139 489.471 111.131H451.716L456.629 88.1517ZM516.106 133.594H511.451C506.452 133.594 502.142 134.283 498.521 135.66C495.073 136.865 492.229 138.5 489.988 140.566C487.919 142.631 486.367 144.955 485.333 147.537C484.299 150.119 483.782 152.701 483.782 155.283C483.782 159.414 484.816 162.512 486.885 164.578C489.126 166.644 491.712 167.676 494.642 167.676C498.263 167.676 501.797 166.385 505.245 163.803C508.865 161.222 511.106 157.779 511.968 153.476L516.106 133.594Z" stroke="#EB5757"/>
<path d="M619.739 78.5984H661.889L665.768 97.9632H667.578C671.543 91.7665 676.629 86.5165 682.835 82.2132C689.041 77.9099 697.23 75.7583 707.401 75.7583C708.091 75.7583 709.125 75.8443 710.505 76.0164C712.056 76.0164 713.694 76.2746 715.418 76.791C717.314 77.1353 719.21 77.7378 721.107 78.5984C723.176 79.2869 725.158 80.3197 727.054 81.6968L715.676 134.885H687.49C687.145 124.213 686.197 116.812 684.645 112.68C683.094 108.377 680.594 106.226 677.146 106.226C675.422 106.226 673.526 106.656 671.457 107.517C669.561 108.205 667.578 109.84 665.509 112.422L648.96 189.623H596.207L619.739 78.5984Z" stroke="#EB5757"/>
<path d="M753.793 78.5984C760.171 77.2214 765.774 75.6722 770.601 73.9509C775.428 72.2296 779.824 70.0779 783.789 67.4959C787.927 64.914 791.806 61.7295 795.426 57.9426C799.219 54.1558 803.27 49.5082 807.58 44H834.215L826.716 78.5984H846.886L843.524 95.8976H823.095L812.493 146.246C811.631 150.205 810.941 153.734 810.424 156.832C809.907 159.931 809.649 162.34 809.649 164.062C809.649 167.504 810.855 169.656 813.269 170.517C815.855 171.377 820.596 171.808 827.491 171.808L823.612 189.623C822.406 189.967 820.509 190.226 817.923 190.398C815.51 190.57 812.752 190.742 809.649 190.914C806.718 191.258 803.615 191.431 800.339 191.431C797.236 191.603 794.478 191.689 792.064 191.689C787.754 191.689 783.531 191.345 779.393 190.656C775.256 190.14 771.549 189.021 768.274 187.299C764.998 185.406 762.326 182.738 760.257 179.295C758.361 175.853 757.413 171.205 757.413 165.353C757.413 163.287 757.499 160.705 757.671 157.607C758.016 154.508 758.62 151.066 759.482 147.279L770.342 95.8976H750.172L753.793 78.5984Z" stroke="#EB5757"/>
<path d="M882.21 78.5984H924.361L928.239 97.9632H930.05C934.015 91.7665 939.1 86.5165 945.307 82.2132C951.513 77.9099 959.702 75.7583 969.873 75.7583C970.562 75.7583 971.597 75.8443 972.976 76.0164C974.527 76.0164 976.165 76.2746 977.889 76.791C979.786 77.1353 981.682 77.7378 983.578 78.5984C985.647 79.2869 987.63 80.3197 989.526 81.6968L978.148 134.885H949.961C949.616 124.213 948.668 116.812 947.117 112.68C945.565 108.377 943.065 106.226 939.617 106.226C937.894 106.226 935.997 106.656 933.928 107.517C932.032 108.205 930.05 109.84 927.981 112.422L911.431 189.623H858.678L882.21 78.5984Z" stroke="#EB5757"/>
<path d="M1085.83 75.7583C1106.34 75.7583 1121.25 79.373 1130.56 86.6025C1140.39 94.1763 1145.3 106.742 1145.3 124.299C1145.3 135.144 1143.49 144.955 1139.87 153.734C1136.25 162.34 1131.17 169.484 1124.61 175.164C1111.51 186.181 1092.55 191.689 1067.72 191.689C1046.52 191.689 1031.35 187.644 1022.21 179.554C1012.39 171.119 1007.47 158.467 1007.47 141.599C1007.47 130.41 1009.71 120.254 1014.2 111.131C1018.85 102.008 1025.49 94.4345 1034.11 88.4099C1046.69 79.9755 1063.93 75.7583 1085.83 75.7583ZM1068.24 174.131C1072.55 174.131 1076.26 171.722 1079.36 166.902C1082.64 162.082 1085.22 156.23 1087.12 149.344C1089.01 142.287 1090.39 135.058 1091.26 127.656C1092.29 120.082 1092.81 113.541 1092.81 108.033C1092.81 103.213 1092.29 99.5985 1091.26 97.1886C1090.39 94.6066 1088.41 93.3157 1085.31 93.3157C1080.65 93.3157 1076.6 95.8116 1073.15 100.803C1069.88 105.795 1067.21 111.734 1065.14 118.619C1063.07 125.504 1061.52 132.562 1060.48 139.791C1059.62 147.021 1059.19 152.873 1059.19 157.349C1059.19 168.537 1062.21 174.131 1068.24 174.131Z" stroke="#EB5757"/>
<path d="M636.018 254.854H632.333L626.518 269.432L627.869 269.596L621.89 254.854H618L625.207 271.029L620.048 282.7H623.733L636.018 254.854Z" fill="#EB5757"/>
<path d="M639.736 264.273C639.736 266.156 640.159 267.849 641.005 269.35C641.879 270.825 643.052 271.985 644.527 272.831C646.001 273.677 647.653 274.101 649.482 274.101C651.338 274.101 652.99 273.677 654.437 272.831C655.911 271.985 657.071 270.825 657.917 269.35C658.791 267.849 659.228 266.156 659.228 264.273C659.228 262.362 658.791 260.669 657.917 259.195C657.071 257.721 655.911 256.56 654.437 255.714C652.99 254.868 651.338 254.445 649.482 254.445C647.653 254.445 646.001 254.868 644.527 255.714C643.052 256.56 641.879 257.721 641.005 259.195C640.159 260.669 639.736 262.362 639.736 264.273ZM643.052 264.273C643.052 262.962 643.325 261.802 643.871 260.792C644.445 259.754 645.209 258.949 646.165 258.376C647.147 257.802 648.253 257.516 649.482 257.516C650.71 257.516 651.802 257.802 652.758 258.376C653.74 258.949 654.505 259.754 655.051 260.792C655.624 261.802 655.911 262.962 655.911 264.273C655.911 265.583 655.624 266.743 655.051 267.753C654.505 268.763 653.74 269.569 652.758 270.169C651.802 270.743 650.71 271.029 649.482 271.029C648.253 271.029 647.147 270.743 646.165 270.169C645.209 269.569 644.445 268.763 643.871 267.753C643.325 266.743 643.052 265.583 643.052 264.273Z" fill="#EB5757"/>
<path d="M669.871 266.32V254.854H666.595V266.73C666.595 268.231 666.854 269.541 667.373 270.661C667.919 271.753 668.669 272.599 669.625 273.2C670.608 273.8 671.754 274.101 673.065 274.101C674.321 274.101 675.413 273.828 676.341 273.282C677.269 272.708 678.047 271.862 678.675 270.743V273.691H681.951V254.854H678.675V266.32C678.675 267.248 678.47 268.067 678.061 268.777C677.678 269.487 677.119 270.046 676.382 270.456C675.672 270.838 674.839 271.029 673.884 271.029C673.01 271.029 672.273 270.852 671.672 270.497C671.072 270.115 670.621 269.582 670.321 268.9C670.021 268.19 669.871 267.33 669.871 266.32Z" fill="#EB5757"/>
<path d="M694.252 254.854H690.976V273.691H694.252V254.854ZM699.944 258.458L701.746 255.755C701.254 255.236 700.708 254.895 700.108 254.731C699.534 254.54 698.907 254.445 698.224 254.445C697.35 254.445 696.491 254.786 695.644 255.468C694.798 256.151 694.102 257.079 693.556 258.253C693.037 259.399 692.778 260.724 692.778 262.225H694.252C694.252 261.324 694.334 260.519 694.498 259.809C694.689 259.099 695.016 258.54 695.48 258.13C695.945 257.721 696.586 257.516 697.405 257.516C697.951 257.516 698.402 257.598 698.756 257.761C699.111 257.898 699.507 258.13 699.944 258.458Z" fill="#EB5757"/>
<path d="M737.15 241.75V273.691H740.426V241.75H737.15ZM721.385 264.273C721.385 266.293 721.808 268.04 722.654 269.514C723.5 270.988 724.633 272.121 726.053 272.913C727.472 273.705 729.029 274.101 730.721 274.101C731.895 274.101 732.96 273.882 733.915 273.445C734.898 272.981 735.731 272.326 736.413 271.48C737.123 270.633 737.669 269.61 738.051 268.408C738.433 267.18 738.625 265.801 738.625 264.273C738.625 262.744 738.433 261.379 738.051 260.178C737.669 258.949 737.123 257.912 736.413 257.065C735.731 256.219 734.898 255.577 733.915 255.141C732.96 254.677 731.895 254.445 730.721 254.445C729.029 254.445 727.472 254.84 726.053 255.632C724.633 256.424 723.5 257.557 722.654 259.031C721.808 260.478 721.385 262.225 721.385 264.273ZM724.701 264.273C724.701 262.826 724.988 261.597 725.561 260.587C726.162 259.577 726.954 258.813 727.937 258.294C728.919 257.775 729.984 257.516 731.131 257.516C731.84 257.516 732.55 257.666 733.26 257.966C733.97 258.267 734.611 258.703 735.185 259.277C735.785 259.85 736.263 260.56 736.618 261.406C736.973 262.225 737.15 263.181 737.15 264.273C737.15 265.365 736.973 266.334 736.618 267.18C736.263 267.999 735.785 268.695 735.185 269.268C734.611 269.842 733.97 270.279 733.26 270.579C732.55 270.879 731.84 271.029 731.131 271.029C729.984 271.029 728.919 270.77 727.937 270.251C726.954 269.733 726.162 268.968 725.561 267.958C724.988 266.948 724.701 265.719 724.701 264.273Z" fill="#EB5757"/>
<path d="M749.243 247.074C749.243 247.674 749.462 248.206 749.899 248.671C750.363 249.107 750.895 249.326 751.496 249.326C752.124 249.326 752.656 249.107 753.093 248.671C753.529 248.206 753.748 247.674 753.748 247.074C753.748 246.446 753.529 245.913 753.093 245.476C752.656 245.04 752.124 244.821 751.496 244.821C750.895 244.821 750.363 245.04 749.899 245.476C749.462 245.913 749.243 246.446 749.243 247.074ZM749.858 254.854V273.691H753.134V254.854H749.858Z" fill="#EB5757"/>
<path d="M761.478 274.92C761.478 276.53 761.874 277.95 762.665 279.178C763.457 280.434 764.549 281.403 765.941 282.086C767.361 282.768 768.985 283.11 770.814 283.11C772.398 283.11 773.899 282.741 775.319 282.004C776.739 281.267 777.899 280.161 778.8 278.687C779.701 277.24 780.151 275.438 780.151 273.282V254.854H776.875V273.282C776.875 274.865 776.561 276.148 775.933 277.131C775.333 278.141 774.568 278.878 773.64 279.342C772.712 279.806 771.77 280.038 770.814 280.038C769.586 280.038 768.521 279.793 767.62 279.301C766.719 278.837 766.023 278.209 765.532 277.418C765.04 276.653 764.795 275.82 764.795 274.92H761.478ZM761.109 264.273C761.109 266.293 761.532 268.04 762.379 269.514C763.225 270.988 764.358 272.121 765.778 272.913C767.197 273.705 768.753 274.101 770.446 274.101C771.62 274.101 772.685 273.882 773.64 273.445C774.623 272.981 775.455 272.326 776.138 271.48C776.848 270.633 777.394 269.61 777.776 268.408C778.158 267.18 778.349 265.801 778.349 264.273C778.349 262.744 778.158 261.379 777.776 260.178C777.394 258.949 776.848 257.912 776.138 257.065C775.455 256.219 774.623 255.577 773.64 255.141C772.685 254.677 771.62 254.445 770.446 254.445C768.753 254.445 767.197 254.84 765.778 255.632C764.358 256.424 763.225 257.557 762.379 259.031C761.532 260.478 761.109 262.225 761.109 264.273ZM764.426 264.273C764.426 262.826 764.713 261.597 765.286 260.587C765.887 259.577 766.678 258.813 767.661 258.294C768.644 257.775 769.709 257.516 770.855 257.516C771.565 257.516 772.275 257.666 772.985 257.966C773.695 258.267 774.336 258.703 774.909 259.277C775.51 259.85 775.988 260.56 776.343 261.406C776.698 262.225 776.875 263.181 776.875 264.273C776.875 265.365 776.698 266.334 776.343 267.18C775.988 267.999 775.51 268.695 774.909 269.268C774.336 269.842 773.695 270.279 772.985 270.579C772.275 270.879 771.565 271.029 770.855 271.029C769.709 271.029 768.644 270.77 767.661 270.251C766.678 269.733 765.887 268.968 765.286 267.958C764.713 266.948 764.426 265.719 764.426 264.273Z" fill="#EB5757"/>
<path d="M788.968 247.074C788.968 247.674 789.187 248.206 789.623 248.671C790.087 249.107 790.62 249.326 791.22 249.326C791.848 249.326 792.381 249.107 792.817 248.671C793.254 248.206 793.473 247.674 793.473 247.074C793.473 246.446 793.254 245.913 792.817 245.476C792.381 245.04 791.848 244.821 791.22 244.821C790.62 244.821 790.087 245.04 789.623 245.476C789.187 245.913 788.968 246.446 788.968 247.074ZM789.582 254.854V273.691H792.858V254.854H789.582Z" fill="#EB5757"/>
<path d="M799.606 254.854V257.925H809.024V254.854H799.606ZM802.677 248.302V273.691H805.953V248.302H802.677Z" fill="#EB5757"/>
<path d="M816.65 267.876C816.65 267.194 816.814 266.607 817.142 266.115C817.469 265.624 817.961 265.242 818.616 264.969C819.298 264.696 820.172 264.559 821.237 264.559C822.383 264.559 823.462 264.709 824.472 265.01C825.482 265.283 826.465 265.747 827.42 266.402V264.477C827.229 264.232 826.861 263.918 826.315 263.535C825.769 263.126 825.031 262.771 824.103 262.471C823.202 262.143 822.069 261.979 820.704 261.979C819.176 261.979 817.852 262.239 816.732 262.757C815.64 263.249 814.794 263.945 814.193 264.846C813.62 265.747 813.333 266.811 813.333 268.04C813.333 269.323 813.634 270.415 814.234 271.316C814.835 272.217 815.627 272.913 816.609 273.404C817.62 273.869 818.698 274.101 819.844 274.101C820.882 274.101 821.919 273.909 822.957 273.527C824.021 273.145 824.909 272.558 825.618 271.766C826.356 270.975 826.724 269.978 826.724 268.777L826.069 266.32C826.069 267.303 825.823 268.176 825.332 268.941C824.868 269.678 824.226 270.251 823.407 270.661C822.615 271.07 821.715 271.275 820.704 271.275C819.913 271.275 819.203 271.152 818.575 270.906C817.974 270.633 817.497 270.238 817.142 269.719C816.814 269.2 816.65 268.586 816.65 267.876ZM816.159 259.195C816.459 258.976 816.869 258.717 817.387 258.417C817.906 258.116 818.534 257.857 819.271 257.639C820.036 257.42 820.882 257.311 821.81 257.311C822.383 257.311 822.929 257.366 823.448 257.475C823.967 257.584 824.417 257.761 824.799 258.007C825.209 258.253 825.523 258.594 825.741 259.031C825.96 259.44 826.069 259.973 826.069 260.628V273.691H829.345V260.178C829.345 258.949 829.031 257.912 828.403 257.065C827.802 256.219 826.943 255.577 825.823 255.141C824.731 254.677 823.448 254.445 821.974 254.445C820.227 254.445 818.725 254.704 817.469 255.223C816.241 255.741 815.272 256.26 814.562 256.779L816.159 259.195Z" fill="#EB5757"/>
<path d="M837.758 241.75V273.691H841.034V241.75H837.758Z" fill="#EB5757"/>
<path d="M868.482 241.75H865.206V273.691H868.482V241.75ZM877.286 262.225V273.691H880.562V261.816C880.562 260.178 880.289 258.813 879.743 257.721C879.224 256.629 878.473 255.81 877.491 255.264C876.535 254.718 875.402 254.445 874.092 254.445C872.781 254.445 871.621 254.786 870.611 255.468C869.628 256.151 868.85 257.079 868.277 258.253C867.704 259.399 867.417 260.724 867.417 262.225H868.482C868.482 261.324 868.673 260.519 869.055 259.809C869.464 259.099 870.024 258.54 870.734 258.13C871.471 257.721 872.317 257.516 873.273 257.516C874.174 257.516 874.911 257.693 875.484 258.048C876.085 258.403 876.535 258.935 876.835 259.645C877.136 260.328 877.286 261.188 877.286 262.225Z" fill="#EB5757"/>
<path d="M887.949 264.273C887.949 266.156 888.372 267.849 889.218 269.35C890.092 270.825 891.266 271.985 892.74 272.831C894.214 273.677 895.866 274.101 897.695 274.101C899.551 274.101 901.203 273.677 902.65 272.831C904.124 271.985 905.284 270.825 906.131 269.35C907.004 267.849 907.441 266.156 907.441 264.273C907.441 262.362 907.004 260.669 906.131 259.195C905.284 257.721 904.124 256.56 902.65 255.714C901.203 254.868 899.551 254.445 897.695 254.445C895.866 254.445 894.214 254.868 892.74 255.714C891.266 256.56 890.092 257.721 889.218 259.195C888.372 260.669 887.949 262.362 887.949 264.273ZM891.266 264.273C891.266 262.962 891.539 261.802 892.085 260.792C892.658 259.754 893.423 258.949 894.378 258.376C895.361 257.802 896.467 257.516 897.695 257.516C898.924 257.516 900.016 257.802 900.971 258.376C901.954 258.949 902.718 259.754 903.264 260.792C903.838 261.802 904.124 262.962 904.124 264.273C904.124 265.583 903.838 266.743 903.264 267.753C902.718 268.763 901.954 269.569 900.971 270.169C900.016 270.743 898.924 271.029 897.695 271.029C896.467 271.029 895.361 270.743 894.378 270.169C893.423 269.569 892.658 268.763 892.085 267.753C891.539 266.743 891.266 265.583 891.266 264.273Z" fill="#EB5757"/>
<path d="M918.084 266.32V254.854H914.808V266.73C914.808 268.231 915.067 269.541 915.586 270.661C916.132 271.753 916.883 272.599 917.838 273.2C918.821 273.8 919.968 274.101 921.278 274.101C922.534 274.101 923.626 273.828 924.554 273.282C925.482 272.708 926.26 271.862 926.888 270.743V273.691H930.164V254.854H926.888V266.32C926.888 267.248 926.684 268.067 926.274 268.777C925.892 269.487 925.332 270.046 924.595 270.456C923.885 270.838 923.053 271.029 922.097 271.029C921.224 271.029 920.486 270.852 919.886 270.497C919.285 270.115 918.835 269.582 918.534 268.9C918.234 268.19 918.084 267.33 918.084 266.32Z" fill="#EB5757"/>
<path d="M939.967 267.917L937.388 269.514C937.742 270.251 938.261 270.975 938.944 271.685C939.653 272.394 940.513 272.981 941.523 273.445C942.534 273.882 943.667 274.101 944.922 274.101C946.205 274.101 947.325 273.855 948.28 273.363C949.263 272.845 950.027 272.162 950.573 271.316C951.119 270.442 951.392 269.46 951.392 268.368C951.392 267.248 951.119 266.334 950.573 265.624C950.055 264.914 949.345 264.313 948.444 263.822C947.543 263.303 946.547 262.826 945.455 262.389C944.799 262.116 944.172 261.829 943.571 261.529C942.97 261.229 942.479 260.887 942.097 260.505C941.715 260.123 941.523 259.686 941.523 259.195C941.523 258.567 941.769 258.103 942.261 257.802C942.752 257.502 943.339 257.352 944.021 257.352C945.004 257.352 945.878 257.584 946.642 258.048C947.434 258.512 948.089 259.099 948.608 259.809L951.229 258.13C950.846 257.42 950.314 256.792 949.632 256.246C948.949 255.7 948.157 255.264 947.256 254.936C946.383 254.608 945.441 254.445 944.431 254.445C943.421 254.445 942.438 254.622 941.483 254.977C940.554 255.332 939.79 255.878 939.189 256.615C938.616 257.352 938.329 258.28 938.329 259.399C938.329 260.491 938.602 261.406 939.148 262.143C939.722 262.853 940.418 263.44 941.237 263.904C942.083 264.341 942.916 264.723 943.735 265.051C944.472 265.324 945.168 265.624 945.823 265.951C946.478 266.252 947.011 266.634 947.42 267.098C947.857 267.535 948.075 268.081 948.075 268.736C948.075 269.473 947.802 270.06 947.256 270.497C946.738 270.906 946.014 271.111 945.086 271.111C944.322 271.111 943.612 270.975 942.957 270.702C942.329 270.401 941.769 270.006 941.278 269.514C940.786 269.023 940.35 268.49 939.967 267.917Z" fill="#EB5757"/>
<path d="M965.861 274.101C967.881 274.101 969.628 273.705 971.103 272.913C972.604 272.094 973.846 270.893 974.829 269.309L972.167 267.63C971.485 268.777 970.652 269.637 969.669 270.21C968.686 270.756 967.554 271.029 966.27 271.029C964.987 271.029 963.895 270.756 962.994 270.21C962.093 269.664 961.411 268.873 960.947 267.835C960.483 266.798 960.251 265.542 960.251 264.068C960.251 263.003 960.387 262.048 960.66 261.201C960.933 260.355 961.329 259.645 961.848 259.072C962.367 258.499 962.994 258.062 963.731 257.761C964.496 257.461 965.342 257.311 966.27 257.311C967.335 257.311 968.263 257.543 969.055 258.007C969.847 258.471 970.461 259.113 970.898 259.932C971.362 260.751 971.594 261.72 971.594 262.839C971.594 263.03 971.553 263.276 971.471 263.576C971.389 263.849 971.307 264.054 971.225 264.191L972.536 262.307H959.022V265.092H975.116C975.116 265.037 975.116 264.914 975.116 264.723C975.143 264.505 975.157 264.3 975.157 264.109C975.157 262.116 974.802 260.396 974.092 258.949C973.382 257.502 972.358 256.396 971.021 255.632C969.71 254.84 968.127 254.445 966.27 254.445C964.878 254.445 963.609 254.69 962.462 255.182C961.315 255.646 960.333 256.315 959.514 257.188C958.695 258.034 958.053 259.058 957.589 260.259C957.152 261.461 956.934 262.798 956.934 264.273C956.934 266.211 957.302 267.917 958.039 269.391C958.804 270.865 959.855 272.026 961.193 272.872C962.558 273.691 964.114 274.101 965.861 274.101Z" fill="#EB5757"/>
<path d="M998.435 267.917L995.855 269.514C996.21 270.251 996.729 270.975 997.411 271.685C998.121 272.394 998.981 272.981 999.991 273.445C1001 273.882 1002.13 274.101 1003.39 274.101C1004.67 274.101 1005.79 273.855 1006.75 273.363C1007.73 272.845 1008.49 272.162 1009.04 271.316C1009.59 270.442 1009.86 269.46 1009.86 268.368C1009.86 267.248 1009.59 266.334 1009.04 265.624C1008.52 264.914 1007.81 264.313 1006.91 263.822C1006.01 263.303 1005.01 262.826 1003.92 262.389C1003.27 262.116 1002.64 261.829 1002.04 261.529C1001.44 261.229 1000.95 260.887 1000.56 260.505C1000.18 260.123 999.991 259.686 999.991 259.195C999.991 258.567 1000.24 258.103 1000.73 257.802C1001.22 257.502 1001.81 257.352 1002.49 257.352C1003.47 257.352 1004.35 257.584 1005.11 258.048C1005.9 258.512 1006.56 259.099 1007.08 259.809L1009.7 258.13C1009.31 257.42 1008.78 256.792 1008.1 256.246C1007.42 255.7 1006.62 255.264 1005.72 254.936C1004.85 254.608 1003.91 254.445 1002.9 254.445C1001.89 254.445 1000.91 254.622 999.95 254.977C999.022 255.332 998.257 255.878 997.657 256.615C997.083 257.352 996.797 258.28 996.797 259.399C996.797 260.491 997.07 261.406 997.616 262.143C998.189 262.853 998.885 263.44 999.704 263.904C1000.55 264.341 1001.38 264.723 1002.2 265.051C1002.94 265.324 1003.64 265.624 1004.29 265.951C1004.95 266.252 1005.48 266.634 1005.89 267.098C1006.32 267.535 1006.54 268.081 1006.54 268.736C1006.54 269.473 1006.27 270.06 1005.72 270.497C1005.21 270.906 1004.48 271.111 1003.55 271.111C1002.79 271.111 1002.08 270.975 1001.42 270.702C1000.8 270.401 1000.24 270.006 999.745 269.514C999.254 269.023 998.817 268.49 998.435 267.917Z" fill="#EB5757"/>
<path d="M1015.4 264.273C1015.4 266.156 1015.82 267.849 1016.67 269.35C1017.54 270.825 1018.72 271.985 1020.19 272.831C1021.67 273.677 1023.32 274.101 1025.15 274.101C1027 274.101 1028.66 273.677 1030.1 272.831C1031.58 271.985 1032.74 270.825 1033.58 269.35C1034.46 267.849 1034.89 266.156 1034.89 264.273C1034.89 262.362 1034.46 260.669 1033.58 259.195C1032.74 257.721 1031.58 256.56 1030.1 255.714C1028.66 254.868 1027 254.445 1025.15 254.445C1023.32 254.445 1021.67 254.868 1020.19 255.714C1018.72 256.56 1017.54 257.721 1016.67 259.195C1015.82 260.669 1015.4 262.362 1015.4 264.273ZM1018.72 264.273C1018.72 262.962 1018.99 261.802 1019.54 260.792C1020.11 259.754 1020.87 258.949 1021.83 258.376C1022.81 257.802 1023.92 257.516 1025.15 257.516C1026.38 257.516 1027.47 257.802 1028.42 258.376C1029.41 258.949 1030.17 259.754 1030.72 260.792C1031.29 261.802 1031.58 262.962 1031.58 264.273C1031.58 265.583 1031.29 266.743 1030.72 267.753C1030.17 268.763 1029.41 269.569 1028.42 270.169C1027.47 270.743 1026.38 271.029 1025.15 271.029C1023.92 271.029 1022.81 270.743 1021.83 270.169C1020.87 269.569 1020.11 268.763 1019.54 267.753C1018.99 266.743 1018.72 265.583 1018.72 264.273Z" fill="#EB5757"/>
<path d="M1042.26 241.75V273.691H1045.54V241.75H1042.26Z" fill="#EB5757"/>
<path d="M1057.84 266.32V254.854H1054.56V266.73C1054.56 268.231 1054.82 269.541 1055.34 270.661C1055.89 271.753 1056.64 272.599 1057.59 273.2C1058.58 273.8 1059.72 274.101 1061.03 274.101C1062.29 274.101 1063.38 273.828 1064.31 273.282C1065.24 272.708 1066.02 271.862 1066.64 270.743V273.691H1069.92V254.854H1066.64V266.32C1066.64 267.248 1066.44 268.067 1066.03 268.777C1065.65 269.487 1065.09 270.046 1064.35 270.456C1063.64 270.838 1062.81 271.029 1061.85 271.029C1060.98 271.029 1060.24 270.852 1059.64 270.497C1059.04 270.115 1058.59 269.582 1058.29 268.9C1057.99 268.19 1057.84 267.33 1057.84 266.32Z" fill="#EB5757"/>
<path d="M1076.08 254.854V257.925H1085.5V254.854H1076.08ZM1079.15 248.302V273.691H1082.43V248.302H1079.15Z" fill="#EB5757"/>
<path d="M1091.65 247.074C1091.65 247.674 1091.87 248.206 1092.31 248.671C1092.77 249.107 1093.3 249.326 1093.9 249.326C1094.53 249.326 1095.06 249.107 1095.5 248.671C1095.94 248.206 1096.15 247.674 1096.15 247.074C1096.15 246.446 1095.94 245.913 1095.5 245.476C1095.06 245.04 1094.53 244.821 1093.9 244.821C1093.3 244.821 1092.77 245.04 1092.31 245.476C1091.87 245.913 1091.65 246.446 1091.65 247.074ZM1092.26 254.854V273.691H1095.54V254.854H1092.26Z" fill="#EB5757"/>
<path d="M1103.52 264.273C1103.52 266.156 1103.94 267.849 1104.79 269.35C1105.66 270.825 1106.83 271.985 1108.31 272.831C1109.78 273.677 1111.43 274.101 1113.26 274.101C1115.12 274.101 1116.77 273.677 1118.22 272.831C1119.69 271.985 1120.85 270.825 1121.7 269.35C1122.57 267.849 1123.01 266.156 1123.01 264.273C1123.01 262.362 1122.57 260.669 1121.7 259.195C1120.85 257.721 1119.69 256.56 1118.22 255.714C1116.77 254.868 1115.12 254.445 1113.26 254.445C1111.43 254.445 1109.78 254.868 1108.31 255.714C1106.83 256.56 1105.66 257.721 1104.79 259.195C1103.94 260.669 1103.52 262.362 1103.52 264.273ZM1106.83 264.273C1106.83 262.962 1107.11 261.802 1107.65 260.792C1108.23 259.754 1108.99 258.949 1109.95 258.376C1110.93 257.802 1112.03 257.516 1113.26 257.516C1114.49 257.516 1115.58 257.802 1116.54 258.376C1117.52 258.949 1118.29 259.754 1118.83 260.792C1119.4 261.802 1119.69 262.962 1119.69 264.273C1119.69 265.583 1119.4 266.743 1118.83 267.753C1118.29 268.763 1117.52 269.569 1116.54 270.169C1115.58 270.743 1114.49 271.029 1113.26 271.029C1112.03 271.029 1110.93 270.743 1109.95 270.169C1108.99 269.569 1108.23 268.763 1107.65 267.753C1107.11 266.743 1106.83 265.583 1106.83 264.273Z" fill="#EB5757"/>
<path d="M1142.46 262.225V273.691H1145.73V261.816C1145.73 260.287 1145.46 258.976 1144.91 257.884C1144.39 256.792 1143.66 255.946 1142.7 255.345C1141.75 254.745 1140.6 254.445 1139.26 254.445C1138.03 254.445 1136.94 254.718 1135.99 255.264C1135.06 255.81 1134.28 256.656 1133.65 257.802V254.854H1130.37V273.691H1133.65V262.225C1133.65 261.297 1133.84 260.478 1134.22 259.768C1134.63 259.058 1135.19 258.512 1135.9 258.13C1136.64 257.721 1137.49 257.516 1138.44 257.516C1139.32 257.516 1140.05 257.693 1140.65 258.048C1141.25 258.403 1141.7 258.935 1142 259.645C1142.31 260.328 1142.46 261.188 1142.46 262.225Z" fill="#EB5757"/>
<line x1="257" y1="271" x2="599" y2="271" stroke="url(#paint0_linear)" stroke-width="6"/>
<path d="M55.0347 277.2L71.9578 220.085L116.296 70.0617L160.973 220.085L178.066 277.2H232.05L139.819 0H92.7732L1.04999 277.2H55.0347Z" fill="#253269"/>
<path d="M1 220L116.793 139.823L240 220L116.793 108L1 220Z" fill="#EB5757" stroke="white"/>
<path d="M117 158L92 180.968V204.185C92 205.197 92.439 206.167 93.2204 206.883C94.0018 207.598 95.0616 208 96.1667 208H110.75V188.923H123.25V208H137.833C138.938 208 139.998 207.598 140.78 206.883C141.561 206.167 142 205.197 142 204.185V180.835L117 158Z" fill="#EB5757"/>
<defs>
<linearGradient id="paint0_linear" x1="310.153" y1="254.801" x2="545.664" y2="261.554" gradientUnits="userSpaceOnUse">
<stop stop-color="#253269"/>
<stop offset="1" stop-color="#EB5757"/>
</linearGradient>
</defs>
</svg>
