<svg width="419" height="101" viewBox="0 0 419 101" fill="none" xmlns="http://www.w3.org/2000/svg">
<path d="M113.241 85H94L105.884 28.6311H121.258L122.956 34.6639H123.522C125.786 32.276 128.301 30.5792 131.067 29.5738C133.897 28.5055 136.664 27.9713 139.368 27.9713C141.568 27.9713 143.392 28.3169 144.838 29.0082C146.347 29.6366 147.542 30.5164 148.422 31.6475C149.303 32.7787 149.931 34.1298 150.309 35.7008C150.686 37.2719 150.875 38.9372 150.875 40.6967C150.875 41.5765 150.812 42.8962 150.686 44.6557C150.56 46.4153 150.277 48.3948 149.837 50.5943C149.397 52.7309 148.768 54.9617 147.951 57.2869C147.133 59.5492 146.033 61.623 144.649 63.5082C143.329 65.3934 141.631 66.9331 139.556 68.127C137.544 69.321 135.123 69.918 132.294 69.918C130.722 69.918 129.181 69.7295 127.672 69.3525C126.226 68.9754 124.905 68.4727 123.711 67.8443C122.516 67.2158 121.447 66.4932 120.504 65.6762C119.623 64.7964 118.963 63.9167 118.523 63.0369H117.957L113.241 85ZM123.239 60.7746C124.748 60.7746 126.006 59.9891 127.012 58.418C128.018 56.7842 128.835 54.8989 129.464 52.7623C130.093 50.5628 130.533 48.3948 130.785 46.2582C131.099 44.0587 131.256 42.4249 131.256 41.3566C131.256 40.0997 131.036 39.0628 130.596 38.2459C130.219 37.429 129.495 37.0205 128.427 37.0205C127.232 37.0205 126.1 37.4604 125.031 38.3402C123.962 39.1571 123.176 39.8798 122.673 40.5082L118.995 57.7582C119.498 58.4494 120.095 59.1407 120.787 59.832C121.478 60.4604 122.296 60.7746 123.239 60.7746Z" fill="#253269"/>
<path d="M166.813 32.1189C170.02 30.5478 173.29 29.4167 176.622 28.7254C180.018 27.9713 183.79 27.5943 187.941 27.5943C191.965 27.5943 195.297 27.9085 197.938 28.5369C200.579 29.1653 202.686 30.0765 204.258 31.2705C205.83 32.4645 206.93 33.8784 207.559 35.5123C208.188 37.1462 208.502 39 208.502 41.0738C208.502 42.2678 208.408 43.556 208.219 44.9385C208.093 46.321 207.936 47.4836 207.748 48.4262L203.315 69.1639H188.129L186.431 63.1311H185.866C183.853 65.3306 181.495 67.0273 178.792 68.2213C176.151 69.3525 173.51 69.918 170.869 69.918C169.36 69.918 167.882 69.6981 166.436 69.2582C164.99 68.8183 163.7 68.1585 162.569 67.2787C161.437 66.3361 160.525 65.1735 159.833 63.791C159.142 62.3456 158.796 60.6175 158.796 58.6066C158.796 55.3388 159.676 52.7623 161.437 50.877C163.26 48.929 165.618 47.4836 168.511 46.541C171.466 45.5355 174.767 44.9071 178.414 44.6557C182.124 44.4044 185.834 44.2787 189.544 44.2787C189.67 43.6503 189.827 42.7705 190.016 41.6393C190.204 40.4454 190.299 39.4085 190.299 38.5287C190.299 37.3975 189.984 36.3607 189.355 35.418C188.789 34.4126 187.563 33.9098 185.677 33.9098C183.476 33.9098 181.841 34.5697 180.772 35.8893C179.766 37.1462 179.106 38.6858 178.792 40.5082H165.021L166.813 32.1189ZM188.506 48.709H186.809C184.985 48.709 183.413 48.9604 182.093 49.4631C180.835 49.903 179.798 50.5 178.98 51.2541C178.226 52.0082 177.66 52.8566 177.282 53.7992C176.905 54.7418 176.717 55.6844 176.717 56.627C176.717 58.1352 177.094 59.2664 177.848 60.0205C178.666 60.7746 179.609 61.1516 180.678 61.1516C181.998 61.1516 183.287 60.6803 184.545 59.7377C185.866 58.7951 186.683 57.5383 186.997 55.9672L188.506 48.709Z" fill="#253269"/>
<path d="M226.306 28.6311H241.68L243.094 35.7008H243.755C245.201 33.4385 247.056 31.5219 249.32 29.9508C251.583 28.3798 254.57 27.5943 258.28 27.5943C258.531 27.5943 258.909 27.6257 259.412 27.6885C259.978 27.6885 260.575 27.7828 261.204 27.9713C261.895 28.097 262.587 28.3169 263.279 28.6311C264.033 28.8825 264.756 29.2596 265.448 29.7623L261.298 49.1803H251.017C250.892 45.2842 250.546 42.582 249.98 41.0738C249.414 39.5027 248.502 38.7172 247.245 38.7172C246.616 38.7172 245.924 38.8743 245.169 39.1885C244.478 39.4399 243.755 40.0369 243 40.9795L236.964 69.1639H217.723L226.306 28.6311Z" fill="#253269"/>
<path d="M275.201 28.6311C277.527 28.1284 279.571 27.5628 281.331 26.9344C283.092 26.306 284.695 25.5205 286.142 24.5779C287.651 23.6352 289.066 22.4727 290.386 21.0902C291.769 19.7077 293.247 18.0109 294.819 16H304.534L301.799 28.6311H309.156L307.929 34.9467H300.478L296.611 53.3279C296.297 54.7732 296.045 56.0615 295.857 57.1926C295.668 58.3238 295.574 59.2035 295.574 59.832C295.574 61.0888 296.014 61.8743 296.894 62.1885C297.837 62.5027 299.566 62.6598 302.082 62.6598L300.667 69.1639C300.227 69.2896 299.535 69.3839 298.592 69.4467C297.711 69.5096 296.705 69.5724 295.574 69.6352C294.505 69.7609 293.373 69.8238 292.178 69.8238C291.046 69.8866 290.04 69.918 289.16 69.918C287.588 69.918 286.047 69.7923 284.538 69.541C283.029 69.3525 281.677 68.944 280.482 68.3156C279.288 67.6243 278.313 66.6503 277.559 65.3934C276.867 64.1366 276.521 62.4399 276.521 60.3033C276.521 59.5492 276.553 58.6066 276.615 57.4754C276.741 56.3443 276.961 55.0874 277.276 53.7049L281.237 34.9467H273.88L275.201 28.6311Z" fill="#253269"/>
<path d="M322.04 28.6311H337.414L338.829 35.7008H339.489C340.935 33.4385 342.79 31.5219 345.054 29.9508C347.317 28.3798 350.304 27.5943 354.014 27.5943C354.265 27.5943 354.643 27.6257 355.146 27.6885C355.712 27.6885 356.309 27.7828 356.938 27.9713C357.63 28.097 358.321 28.3169 359.013 28.6311C359.767 28.8825 360.491 29.2596 361.182 29.7623L357.032 49.1803H346.751C346.626 45.2842 346.28 42.582 345.714 41.0738C345.148 39.5027 344.236 38.7172 342.979 38.7172C342.35 38.7172 341.658 38.8743 340.904 39.1885C340.212 39.4399 339.489 40.0369 338.734 40.9795L332.698 69.1639H313.457L322.04 28.6311Z" fill="#253269"/>
<path d="M396.307 27.5943C403.789 27.5943 409.228 28.9139 412.624 31.5533C416.208 34.3183 418 38.9057 418 45.3156C418 49.2746 417.34 52.8566 416.019 56.0615C414.699 59.2036 412.844 61.8115 410.454 63.8852C405.676 67.9071 398.759 69.918 389.704 69.918C381.97 69.918 376.437 68.4413 373.104 65.4877C369.52 62.4085 367.728 57.7896 367.728 51.6311C367.728 47.5464 368.545 43.8388 370.18 40.5082C371.878 37.1776 374.299 34.4126 377.443 32.2131C382.033 29.1339 388.321 27.5943 396.307 27.5943ZM389.893 63.5082C391.465 63.5082 392.817 62.6284 393.949 60.8688C395.143 59.1093 396.086 56.9727 396.778 54.459C397.47 51.8825 397.973 49.2432 398.287 46.541C398.665 43.776 398.853 41.388 398.853 39.377C398.853 37.6175 398.665 36.2978 398.287 35.418C397.973 34.4754 397.25 34.0041 396.118 34.0041C394.42 34.0041 392.942 34.9153 391.685 36.7377C390.49 38.5601 389.516 40.7281 388.761 43.2418C388.006 45.7555 387.441 48.332 387.063 50.9713C386.749 53.6107 386.592 55.7473 386.592 57.3811C386.592 61.4658 387.692 63.5082 389.893 63.5082Z" fill="#253269"/>
<path d="M113.241 85H94L105.884 28.6311H121.258L122.956 34.6639H123.522C125.786 32.276 128.301 30.5792 131.067 29.5738C133.897 28.5055 136.664 27.9713 139.368 27.9713C141.568 27.9713 143.392 28.3169 144.838 29.0082C146.347 29.6366 147.542 30.5164 148.422 31.6475C149.303 32.7787 149.931 34.1298 150.309 35.7008C150.686 37.2719 150.875 38.9372 150.875 40.6967C150.875 41.5765 150.812 42.8962 150.686 44.6557C150.56 46.4153 150.277 48.3948 149.837 50.5943C149.397 52.7309 148.768 54.9617 147.951 57.2869C147.133 59.5492 146.033 61.623 144.649 63.5082C143.329 65.3934 141.631 66.9331 139.556 68.127C137.544 69.321 135.123 69.918 132.294 69.918C130.722 69.918 129.181 69.7295 127.672 69.3525C126.226 68.9754 124.905 68.4727 123.711 67.8443C122.516 67.2158 121.447 66.4932 120.504 65.6762C119.623 64.7964 118.963 63.9167 118.523 63.0369H117.957L113.241 85ZM123.239 60.7746C124.748 60.7746 126.006 59.9891 127.012 58.418C128.018 56.7842 128.835 54.8989 129.464 52.7623C130.093 50.5628 130.533 48.3948 130.785 46.2582C131.099 44.0587 131.256 42.4249 131.256 41.3566C131.256 40.0997 131.036 39.0628 130.596 38.2459C130.219 37.429 129.495 37.0205 128.427 37.0205C127.232 37.0205 126.1 37.4604 125.031 38.3402C123.962 39.1571 123.176 39.8798 122.673 40.5082L118.995 57.7582C119.498 58.4494 120.095 59.1407 120.787 59.832C121.478 60.4604 122.296 60.7746 123.239 60.7746Z" stroke="#EB5757"/>
<path d="M166.813 32.1189C170.02 30.5478 173.29 29.4167 176.622 28.7254C180.018 27.9713 183.79 27.5943 187.941 27.5943C191.965 27.5943 195.297 27.9085 197.938 28.5369C200.579 29.1653 202.686 30.0765 204.258 31.2705C205.83 32.4645 206.93 33.8784 207.559 35.5123C208.188 37.1462 208.502 39 208.502 41.0738C208.502 42.2678 208.408 43.556 208.219 44.9385C208.093 46.321 207.936 47.4836 207.748 48.4262L203.315 69.1639H188.129L186.431 63.1311H185.866C183.853 65.3306 181.495 67.0273 178.792 68.2213C176.151 69.3525 173.51 69.918 170.869 69.918C169.36 69.918 167.882 69.6981 166.436 69.2582C164.99 68.8183 163.7 68.1585 162.569 67.2787C161.437 66.3361 160.525 65.1735 159.833 63.791C159.142 62.3456 158.796 60.6175 158.796 58.6066C158.796 55.3388 159.676 52.7623 161.437 50.877C163.26 48.929 165.618 47.4836 168.511 46.541C171.466 45.5355 174.767 44.9071 178.414 44.6557C182.124 44.4044 185.834 44.2787 189.544 44.2787C189.67 43.6503 189.827 42.7705 190.016 41.6393C190.204 40.4454 190.299 39.4085 190.299 38.5287C190.299 37.3975 189.984 36.3607 189.355 35.418C188.789 34.4126 187.563 33.9098 185.677 33.9098C183.476 33.9098 181.841 34.5697 180.772 35.8893C179.766 37.1462 179.106 38.6858 178.792 40.5082H165.021L166.813 32.1189ZM188.506 48.709H186.809C184.985 48.709 183.413 48.9604 182.093 49.4631C180.835 49.903 179.798 50.5 178.98 51.2541C178.226 52.0082 177.66 52.8566 177.282 53.7992C176.905 54.7418 176.717 55.6844 176.717 56.627C176.717 58.1352 177.094 59.2664 177.848 60.0205C178.666 60.7746 179.609 61.1516 180.678 61.1516C181.998 61.1516 183.287 60.6803 184.545 59.7377C185.866 58.7951 186.683 57.5383 186.997 55.9672L188.506 48.709Z" stroke="#EB5757"/>
<path d="M226.306 28.6311H241.68L243.094 35.7008H243.755C245.201 33.4385 247.056 31.5219 249.32 29.9508C251.583 28.3798 254.57 27.5943 258.28 27.5943C258.531 27.5943 258.909 27.6257 259.412 27.6885C259.978 27.6885 260.575 27.7828 261.204 27.9713C261.895 28.097 262.587 28.3169 263.279 28.6311C264.033 28.8825 264.756 29.2596 265.448 29.7623L261.298 49.1803H251.017C250.892 45.2842 250.546 42.582 249.98 41.0738C249.414 39.5027 248.502 38.7172 247.245 38.7172C246.616 38.7172 245.924 38.8743 245.169 39.1885C244.478 39.4399 243.755 40.0369 243 40.9795L236.964 69.1639H217.723L226.306 28.6311Z" stroke="#EB5757"/>
<path d="M275.201 28.6311C277.527 28.1284 279.571 27.5628 281.331 26.9344C283.092 26.306 284.695 25.5205 286.142 24.5779C287.651 23.6352 289.066 22.4727 290.386 21.0902C291.769 19.7077 293.247 18.0109 294.819 16H304.534L301.799 28.6311H309.156L307.929 34.9467H300.478L296.611 53.3279C296.297 54.7732 296.045 56.0615 295.857 57.1926C295.668 58.3238 295.574 59.2035 295.574 59.832C295.574 61.0888 296.014 61.8743 296.894 62.1885C297.837 62.5027 299.566 62.6598 302.082 62.6598L300.667 69.1639C300.227 69.2896 299.535 69.3839 298.592 69.4467C297.711 69.5096 296.705 69.5724 295.574 69.6352C294.505 69.7609 293.373 69.8238 292.178 69.8238C291.046 69.8866 290.04 69.918 289.16 69.918C287.588 69.918 286.047 69.7923 284.538 69.541C283.029 69.3525 281.677 68.944 280.482 68.3156C279.288 67.6243 278.313 66.6503 277.559 65.3934C276.867 64.1366 276.521 62.4399 276.521 60.3033C276.521 59.5492 276.553 58.6066 276.615 57.4754C276.741 56.3443 276.961 55.0874 277.276 53.7049L281.237 34.9467H273.88L275.201 28.6311Z" stroke="#EB5757"/>
<path d="M322.04 28.6311H337.414L338.829 35.7008H339.489C340.935 33.4385 342.79 31.5219 345.054 29.9508C347.317 28.3798 350.304 27.5943 354.014 27.5943C354.265 27.5943 354.643 27.6257 355.146 27.6885C355.712 27.6885 356.309 27.7828 356.938 27.9713C357.63 28.097 358.321 28.3169 359.013 28.6311C359.767 28.8825 360.491 29.2596 361.182 29.7623L357.032 49.1803H346.751C346.626 45.2842 346.28 42.582 345.714 41.0738C345.148 39.5027 344.236 38.7172 342.979 38.7172C342.35 38.7172 341.658 38.8743 340.904 39.1885C340.212 39.4399 339.489 40.0369 338.734 40.9795L332.698 69.1639H313.457L322.04 28.6311Z" stroke="#EB5757"/>
<path d="M396.307 27.5943C403.789 27.5943 409.228 28.9139 412.624 31.5533C416.208 34.3183 418 38.9057 418 45.3156C418 49.2746 417.34 52.8566 416.019 56.0615C414.699 59.2036 412.844 61.8115 410.454 63.8852C405.676 67.9071 398.759 69.918 389.704 69.918C381.97 69.918 376.437 68.4413 373.104 65.4877C369.52 62.4085 367.728 57.7896 367.728 51.6311C367.728 47.5464 368.545 43.8388 370.18 40.5082C371.878 37.1776 374.299 34.4126 377.443 32.2131C382.033 29.1339 388.321 27.5943 396.307 27.5943ZM389.893 63.5082C391.465 63.5082 392.817 62.6284 393.949 60.8688C395.143 59.1093 396.086 56.9727 396.778 54.459C397.47 51.8825 397.973 49.2432 398.287 46.541C398.665 43.776 398.853 41.388 398.853 39.377C398.853 37.6175 398.665 36.2978 398.287 35.418C397.973 34.4754 397.25 34.0041 396.118 34.0041C394.42 34.0041 392.942 34.9153 391.685 36.7377C390.49 38.5601 389.516 40.7281 388.761 43.2418C388.006 45.7555 387.441 48.332 387.063 50.9713C386.749 53.6107 386.592 55.7473 386.592 57.3811C386.592 61.4658 387.692 63.5082 389.893 63.5082Z" stroke="#EB5757"/>
<line x1="94" y1="97" x2="418" y2="97" stroke="url(#paint0_linear)" stroke-width="6"/>
<path d="M20.6308 101L26.7846 80.1896L42.9077 25.5275L59.1538 80.1896L65.3692 101H85L51.4615 0H34.3538L1 101H20.6308Z" fill="#253269"/>
<path d="M0.731201 80.5864L42.9393 51.3608L87.8497 80.5864L42.9393 39.761L0.731201 80.5864Z" fill="#EB5757" stroke="white"/>
<path d="M43.0147 57.9866L33.9019 66.3588V74.8215C33.9019 75.1903 34.0619 75.544 34.3467 75.8049C34.6315 76.0657 35.0178 76.2122 35.4207 76.2122H40.7365V69.2585H45.2929V76.2122H50.6087C51.0115 76.2122 51.3978 76.0657 51.6826 75.8049C51.9675 75.544 52.1275 75.1903 52.1275 74.8215V66.3101L43.0147 57.9866Z" fill="#EB5757"/>
<defs>
<linearGradient id="paint0_linear" x1="144.356" y1="80.8009" x2="367.49" y2="86.862" gradientUnits="userSpaceOnUse">
<stop stop-color="#253269"/>
<stop offset="1" stop-color="#EB5757"/>
</linearGradient>
</defs>
</svg>
